<svg xmlns="http://www.w3.org/2000/svg" viewBox="0 0 1000 1000"><path d="M779.621 13.981c-4.202 23.177-8.132 44.186-11.927 65.058-20.06 108.024-39.984 216.183-60.043 324.207-11.792 63.296-23.449 126.728-35.376 190.024-.542 2.982-2.575 6.37-4.88 8.403-109.514 93.657-219.028 187.178-328.543 280.699-37.544 32.122-75.223 64.11-112.767 96.096-1.627 1.356-3.389 2.575-6.506 5.15 2.575-13.96 4.608-26.158 6.912-38.357 33.343-180.13 66.685-360.259 100.298-540.253.678-3.389 3.118-7.184 5.828-9.488 84.712-72.512 169.694-144.89 254.54-217.402C649.64 124.85 711.987 71.449 774.471 18.183c.948-.813 2.168-1.762 5.15-4.202zM285.857 867.327c.542.271.949.678 1.49.949 114.666-97.452 229.33-194.903 344.538-292.762-88.235-50.962-175.522-101.382-263.486-152.073-27.65 148.685-55.028 296.286-82.542 443.886z"/></svg>