<svg xmlns="http://www.w3.org/2000/svg" width="500" height="500"><path d="M250 50C139.552 50 50 139.551 50 250c0 110.447 89.551 200 200 200 110.45 0 200-89.553 200-200 0-110.449-89.55-200-200-200zm105.614 291.822l-16.013 16.017c-2.86 2.855-11.23 4.636-11.5 4.636-50.66.442-99.438-19.457-135.277-55.3-35.938-35.957-55.86-84.909-55.325-135.74 0-.023 1.834-8.154 4.69-10.983l16.013-16.016c5.86-5.887 17.116-8.547 25.001-5.909l3.369 1.124c7.862 2.635 16.117 11.328 18.289 19.337l8.055 29.564c2.172 8.032-.758 19.459-6.616 25.319l-10.692 10.694c10.498 38.863 40.99 69.361 79.86 79.885l10.689-10.697c5.887-5.887 17.31-8.814 25.324-6.645l29.56 8.084c8.01 2.2 16.702 10.403 19.337 18.263l1.123 3.417c2.612 7.863-.028 19.117-5.887 24.95z"/></svg>